<svg aria-hidden="true" style="position: absolute; width: 0; height: 0; overflow: hidden;" version="1.1" xmlns="http://www.w3.org/2000/svg" xmlns:xlink="http://www.w3.org/1999/xlink">
<defs>
<symbol id="icon-email" viewBox="0 0 32 32">
<path d="M26.24 5.76h-20.48c-1.408 0-2.547 1.152-2.547 2.56l-0.013 15.36c0 1.408 1.152 2.56 2.56 2.56h20.48c1.408 0 2.56-1.152 2.56-2.56v-15.36c0-1.408-1.152-2.56-2.56-2.56zM26.24 10.88l-10.24 6.4-10.24-6.4v-2.56l10.24 6.4 10.24-6.4v2.56z"></path>
</symbol>
<symbol id="icon-lock" viewBox="0 0 32 32">
<path d="M23.68 10.88h-1.28v-2.56c0-3.533-2.867-6.4-6.4-6.4s-6.4 2.867-6.4 6.4v2.56h-1.28c-1.408 0-2.56 1.152-2.56 2.56v12.8c0 1.408 1.152 2.56 2.56 2.56h15.36c1.408 0 2.56-1.152 2.56-2.56v-12.8c0-1.408-1.152-2.56-2.56-2.56zM16 22.4c-1.408 0-2.56-1.152-2.56-2.56s1.152-2.56 2.56-2.56c1.408 0 2.56 1.152 2.56 2.56s-1.152 2.56-2.56 2.56zM19.968 10.88h-7.936v-2.56c0-2.189 1.779-3.968 3.968-3.968s3.968 1.779 3.968 3.968v2.56z"></path>
</symbol>
<symbol id="icon-user" viewBox="0 0 32 32">
<path d="M16 20c-4.227 0-7.986 2.041-10.379 5.208-0.515 0.682-0.773 1.022-0.764 1.483 0.006 0.356 0.23 0.805 0.51 1.025 0.362 0.284 0.865 0.284 1.869 0.284h17.527c1.004 0 1.507 0 1.869-0.284 0.28-0.22 0.503-0.669 0.51-1.025 0.008-0.461-0.249-0.801-0.764-1.483-2.393-3.167-6.152-5.208-10.379-5.208z"></path>
<path d="M16 16c3.314 0 6-2.686 6-6s-2.686-6-6-6c-3.314 0-6 2.686-6 6s2.686 6 6 6z"></path>
</symbol>
<symbol id="icon-exit" viewBox="0 0 32 32">
<path d="M20.051 23.237h2.499v4.997c0 2.067-1.681 3.748-3.748 3.748h-15.054c-2.066 0-3.748-1.681-3.748-3.748v-24.486c0-2.066 1.681-3.748 3.748-3.748h15.054c2.067 0 3.748 1.681 3.748 3.748v4.997h-2.499v-4.997c0-0.689-0.56-1.249-1.249-1.249h-15.054c-0.689 0-1.249 0.561-1.249 1.249v24.486c0 0.689 0.561 1.249 1.249 1.249h15.054c0.689 0 1.249-0.561 1.249-1.249v-4.997zM26.111 10.102l-1.767 1.767 2.873 2.874h-16.161v2.499h16.161l-2.873 2.873 1.767 1.767 5.889-5.889-5.889-5.89z"></path>
</symbol>
<symbol id="icon-home" viewBox="0 0 38 38">
  <path fill-rule="evenodd" clip-rule="evenodd" d="M6 0C2.68629 0 0 2.68629 0 6V32C0 35.3137 2.68629 38 6 38H32C35.3137 38 38 35.3137 38 32V6C38 2.68629 35.3137 0 32 0H6ZM15.9333 21.3594V29.5555H9.1V18.6274H5L18.6667 6.33325L32.3333 18.6274H28.2333V29.5555H21.4V21.3594H15.9333Z" />
</symbol>
<symbol id="icon-graphic" viewBox="0 0 38 38">
  <path fill-rule="evenodd" clip-rule="evenodd" d="M6 0C2.68629 0 0 2.68629 0 6V32C0 35.3137 2.68629 38 6 38H32C35.3137 38 38 35.3137 38 32V6C38 2.68629 35.3137 0 32 0H6ZM29.5 16.5555C30.7833 16.5555 31.8333 15.4555 31.8333 14.1111C31.8333 12.7666 30.7833 11.6666 29.5 11.6666C28.2166 11.6666 27.1666 12.7666 27.1666 14.1111C27.1666 14.3311 27.19 14.5389 27.2483 14.7344L23.1066 19.0855C22.92 19.0244 22.71 19 22.5 19C22.29 19 22.08 19.0244 21.8933 19.0855L18.9183 15.9689C18.9766 15.7733 19 15.5533 19 15.3333C19 13.9889 17.95 12.8889 16.6666 12.8889C15.3833 12.8889 14.3333 13.9889 14.3333 15.3333C14.3333 15.5533 14.3566 15.7733 14.415 15.9689L9.09498 21.53C8.90831 21.4689 8.70998 21.4444 8.49998 21.4444C7.21664 21.4444 6.16664 22.5444 6.16664 23.8889C6.16664 25.2333 7.21664 26.3333 8.49998 26.3333C9.78331 26.3333 10.8333 25.2333 10.8333 23.8889C10.8333 23.6689 10.81 23.4611 10.7516 23.2655L16.06 17.6922C16.2466 17.7533 16.4566 17.7778 16.6666 17.7778C16.8766 17.7778 17.0866 17.7533 17.2733 17.6922L20.2483 20.8089C20.19 21.0044 20.1666 21.2244 20.1666 21.4444C20.1666 22.7889 21.2166 23.8889 22.5 23.8889C23.7833 23.8889 24.8333 22.7889 24.8333 21.4444C24.8333 21.2244 24.81 21.0044 24.7516 20.8089L28.905 16.47C29.0916 16.5311 29.29 16.5555 29.5 16.5555Z"/>
</symbol>
<symbol id="icon-dollar" viewBox="0 0 38 38">
  <path fill-rule="evenodd" clip-rule="evenodd" d="M6 0C2.68629 0 0 2.68629 0 6V32C0 35.3137 2.68629 38 6 38H32C35.3137 38 38 35.3137 38 32V6C38 2.68629 35.3137 0 32 0H6ZM15.7523 15.5989C15.7523 16.7809 16.6607 17.5399 19.4852 18.2741C22.3096 19.0082 25.3332 20.2151 25.3332 23.7489C25.3332 26.2996 23.4046 27.7056 20.9783 28.166V30.8412H17.2455V28.1411C14.8565 27.631 12.8159 26.1005 12.6666 23.3756H15.4039C15.5408 24.8438 16.5487 25.9885 19.1119 25.9885C21.8617 25.9885 22.4714 24.6198 22.4714 23.7613C22.4714 22.6041 21.8493 21.5092 18.7386 20.7626C15.2671 19.9289 12.8905 18.498 12.8905 15.6238C12.8905 13.2223 14.8316 11.6546 17.2455 11.132V8.44434H20.9783V11.1693C23.5788 11.8039 24.8853 13.7698 24.9724 15.91H22.2225C22.1479 14.3546 21.3267 13.297 19.1119 13.297C17.0091 13.297 15.7523 14.2426 15.7523 15.5989Z"/>
</symbol>
<symbol id="icon-plus" viewBox="0 0 32 32">
<path stroke-linejoin="miter" stroke-linecap="butt" stroke-miterlimit="4" stroke-width="3.2" d="M16 0v32"></path>
<path stroke-linejoin="miter" stroke-linecap="butt" stroke-miterlimit="4" stroke-width="3.2" d="M0 16h32"></path>
</symbol>
<symbol id="icon-minus" viewBox="0 0 32 32">
<path stroke-linejoin="miter" stroke-linecap="butt" stroke-miterlimit="4" stroke-width="3.2" d="M0 16h32"></path>
</symbol>
<symbol id="icon-calendar" viewBox="0 0 32 32">
<path d="M12 14.667h-2.667v2.667h2.667v-2.667zM17.333 14.667h-2.667v2.667h2.667v-2.667zM22.667 14.667h-2.667v2.667h2.667v-2.667zM25.333 5.333h-1.333v-2.667h-2.667v2.667h-10.667v-2.667h-2.667v2.667h-1.333c-1.48 0-2.653 1.2-2.653 2.667l-0.013 18.667c0 1.467 1.187 2.667 2.667 2.667h18.667c1.467 0 2.667-1.2 2.667-2.667v-18.667c0-1.467-1.2-2.667-2.667-2.667zM25.333 26.667h-18.667v-14.667h18.667v14.667z"></path>
</symbol>
<symbol id="icon-pen" viewBox="0 0 32 32">
<path stroke-linejoin="round" stroke-linecap="round" stroke-miterlimit="4" stroke-width="2.56" d="M23.467 13.511l-4.978-4.978M4.178 27.823l4.212-0.468c0.515-0.057 0.772-0.086 1.012-0.164 0.213-0.069 0.416-0.167 0.604-0.29 0.211-0.139 0.394-0.322 0.76-0.688l16.435-16.434c1.375-1.375 1.375-3.603 0-4.978s-3.603-1.375-4.978 0l-16.434 16.434c-0.366 0.366-0.549 0.549-0.688 0.76-0.123 0.187-0.221 0.39-0.29 0.604-0.078 0.24-0.106 0.498-0.164 1.012l-0.468 4.212z"></path>
</symbol>
<symbol id="icon-close" viewBox="0 0 32 32">
<path stroke-linejoin="miter" stroke-linecap="butt" stroke-miterlimit="4" stroke-width="1.7778" d="M1.778 1.778l28.444 28.444"></path>
<path stroke-linejoin="miter" stroke-linecap="butt" stroke-miterlimit="4" stroke-width="1.7778" d="M1.778 30.222l28.444-28.444"></path>
</symbol>
<symbol id="icon-vector-up" viewBox="0 0 32 32">
<path stroke-linejoin="miter" stroke-linecap="butt" stroke-miterlimit="4" stroke-width="1.6" d="M1.6 23.2l14.4-14.4 14.4 14.4"></path>
</symbol>
<symbol id="icon-vector-down" viewBox="0 0 32 32">
<path stroke-linejoin="miter" stroke-linecap="butt" stroke-miterlimit="4" stroke-width="1.6" d="M1.6 8.8l14.4 14.4 14.4-14.4"></path>
</symbol>

<symbol id="icon-logo" viewBox="0 0 25 23">
  <g clip-path="url(#clip0_31_4689)">
    <path fill-rule="evenodd" clip-rule="evenodd" d="M17.0684 3.08869C15.4051 2.69093 13.7418 1.89542 12.4942 0.702148C11.2467 1.89542 9.58339 2.69093 7.92004 3.08869C8.33588 6.6685 9.58339 9.05504 12.4942 11.0438C15.4051 9.05504 17.0684 6.6685 17.0684 3.08869Z" fill="#FFB627" />
    <path fill-rule="evenodd" clip-rule="evenodd" d="M15.405 17.8989L3.7616 4.77295V11.1371L12.91 21.081L15.405 17.8989Z" fill="#FBFBFB" />
    <path fill-rule="evenodd" clip-rule="evenodd" d="M16.6528 16.7058L21.6428 11.1372V5.1709L13.7419 13.9215L16.6528 16.7058Z" fill="#FBFBFB" />
    <path fill-rule="evenodd" clip-rule="evenodd" d="M17.0686 18.6945V22.2743L21.6428 17.1035V13.5237L17.0686 18.6945Z" fill="#FBFBFB" />
    <path fill-rule="evenodd" clip-rule="evenodd" d="M8.3358 18.6945L3.7616 13.5237V17.1035L8.3358 22.2743V18.6945Z" fill="#FBFBFB" />
  </g>
</symbol>

</defs>
</svg>
